<svg width="195" height="64" viewBox="0 0 195 64" fill="none" xmlns="http://www.w3.org/2000/svg">
<g filter="url(#filter0_f_1852_6958)">
<path d="M24.0999 32.7131L26.2775 34.8907V49.045C25.9145 50.4967 25.0072 51.4041 23.5555 51.767L21.9223 47.4118V34.8907L24.0999 32.7131ZM21.9223 29.4467V18.0144H26.2775V29.4467L24.0999 31.6243L21.9223 29.4467ZM17.0772 16.9256L12.722 15.2924C13.0849 13.8407 13.9922 12.9333 15.444 12.5704H32.8102C34.262 12.9333 35.1693 13.8407 35.5322 15.2924L31.177 16.9256H17.0772ZM57.2998 29.9911L59.4774 32.1687L57.2998 34.3463H43.1455L40.9679 32.1687L43.1455 29.9911H57.2998ZM78.5547 30.5355L76.3771 32.7131L74.1995 30.5355V18.0144H78.5547V30.5355ZM86.7206 32.7131L87.8094 33.8019V49.045C87.4465 50.4967 86.5392 51.4041 85.0875 51.767L83.4543 47.4118V35.9795L86.7206 32.7131ZM82.3655 16.9256H69.3544L64.9992 15.2924C65.3621 13.8407 66.2695 12.9333 67.7212 12.5704H83.9987L82.3655 16.9256ZM69.2999 18.0144V28.3579L66.0336 31.6243L64.9448 30.5355V16.3812L69.2999 18.0144ZM83.4543 28.3579V16.9256L85.0875 12.5704C86.5392 12.9333 87.4465 13.8407 87.8094 15.2924V30.5355L86.7206 31.6243L83.4543 28.3579ZM69.2999 35.9795V47.4118L67.6667 51.767C66.215 51.4041 65.3077 50.4967 64.9448 49.045V33.8019L66.0336 32.7131L69.2999 35.9795ZM93.2492 28.3579V16.9256L94.8824 12.5704C96.3341 12.9333 97.2414 13.8407 97.6043 15.2924V30.5355L96.5155 31.6243L93.2492 28.3579ZM96.5155 32.1687L97.6043 33.2575V48.5006C97.2414 49.9523 96.3341 50.8597 94.8824 51.2226L93.2492 46.8674V35.4351L96.5155 32.1687ZM107.429 35.9795V47.4118L105.796 51.767C104.344 51.4041 103.437 50.4967 103.074 49.045V33.8019L104.163 32.7131L107.429 35.9795ZM120.495 28.9023H116.684L108.518 20.7364V17.47H111.784L120.495 26.1803V28.9023ZM124.85 32.7131L125.939 33.8019V49.045C125.576 50.4967 124.668 51.4041 123.217 51.767L121.583 47.4118V35.9795L124.85 32.7131ZM121.583 28.9023V17.47L123.217 13.1148C124.668 13.4777 125.576 14.3851 125.939 15.8368V31.0799L124.85 32.1687L121.583 28.9023ZM104.163 32.1687L103.074 31.0799V15.8368C103.437 14.3851 104.344 13.4777 105.796 13.1148L107.429 17.47V28.9023L104.163 32.1687ZM153.154 32.7131L154.243 33.8019V49.045C153.88 50.4967 152.973 51.4041 151.521 51.767L149.888 47.4118V35.9795L153.154 32.7131ZM150.432 51.767H134.1C132.648 51.4041 131.741 50.4967 131.378 49.045L135.733 47.4118H148.799L150.432 51.767ZM131.378 47.9562V33.8019L132.467 32.7131L135.733 35.9795V46.323L131.378 47.9562ZM149.888 28.3579V16.9256L151.521 12.5704C152.973 12.9333 153.88 13.8407 154.243 15.2924V30.5355L153.154 31.6243L149.888 28.3579ZM132.467 32.1687L131.378 31.0799V15.8368C131.741 14.3851 132.648 13.4777 134.1 13.1148L135.733 17.47V28.9023L132.467 32.1687ZM178.192 29.9911L180.37 32.1687L178.192 34.3463H164.038L161.86 32.1687L164.038 29.9911H178.192ZM181.459 32.7131L182.547 33.8019V49.045C182.184 50.4967 181.277 51.4041 179.825 51.767L178.192 47.4118V35.9795L181.459 32.7131ZM178.737 51.767H162.405C160.953 51.4041 160.046 50.4967 159.683 49.045L164.038 47.4118H177.103L178.737 51.767ZM164.038 18.0144V28.3579L160.771 31.6243L159.683 30.5355V16.3812L164.038 18.0144ZM164.092 16.9256L159.737 15.2924C160.1 13.8407 161.007 12.9333 162.459 12.5704H179.825C181.277 12.9333 182.184 13.8407 182.547 15.2924L178.192 16.9256H164.092Z" fill="#4C4C4C"/>
</g>
<g filter="url(#filter1_f_1852_6958)">
<path d="M24.0999 32.7131L26.2775 34.8907V49.045C25.9145 50.4967 25.0072 51.4041 23.5555 51.767L21.9223 47.4118V34.8907L24.0999 32.7131ZM21.9223 29.4467V18.0144H26.2775V29.4467L24.0999 31.6243L21.9223 29.4467ZM17.0772 16.9256L12.722 15.2924C13.0849 13.8407 13.9922 12.9333 15.444 12.5704H32.8102C34.262 12.9333 35.1693 13.8407 35.5322 15.2924L31.177 16.9256H17.0772ZM57.2998 29.9911L59.4774 32.1687L57.2998 34.3463H43.1455L40.9679 32.1687L43.1455 29.9911H57.2998ZM78.5547 30.5355L76.3771 32.7131L74.1995 30.5355V18.0144H78.5547V30.5355ZM86.7206 32.7131L87.8094 33.8019V49.045C87.4465 50.4967 86.5392 51.4041 85.0875 51.767L83.4543 47.4118V35.9795L86.7206 32.7131ZM82.3655 16.9256H69.3544L64.9992 15.2924C65.3621 13.8407 66.2695 12.9333 67.7212 12.5704H83.9987L82.3655 16.9256ZM69.2999 18.0144V28.3579L66.0336 31.6243L64.9448 30.5355V16.3812L69.2999 18.0144ZM83.4543 28.3579V16.9256L85.0875 12.5704C86.5392 12.9333 87.4465 13.8407 87.8094 15.2924V30.5355L86.7206 31.6243L83.4543 28.3579ZM69.2999 35.9795V47.4118L67.6667 51.767C66.215 51.4041 65.3077 50.4967 64.9448 49.045V33.8019L66.0336 32.7131L69.2999 35.9795ZM93.2492 28.3579V16.9256L94.8824 12.5704C96.3341 12.9333 97.2414 13.8407 97.6043 15.2924V30.5355L96.5155 31.6243L93.2492 28.3579ZM96.5155 32.1687L97.6043 33.2575V48.5006C97.2414 49.9523 96.3341 50.8597 94.8824 51.2226L93.2492 46.8674V35.4351L96.5155 32.1687ZM107.429 35.9795V47.4118L105.796 51.767C104.344 51.4041 103.437 50.4967 103.074 49.045V33.8019L104.163 32.7131L107.429 35.9795ZM120.495 28.9023H116.684L108.518 20.7364V17.47H111.784L120.495 26.1803V28.9023ZM124.85 32.7131L125.939 33.8019V49.045C125.576 50.4967 124.668 51.4041 123.217 51.767L121.583 47.4118V35.9795L124.85 32.7131ZM121.583 28.9023V17.47L123.217 13.1148C124.668 13.4777 125.576 14.3851 125.939 15.8368V31.0799L124.85 32.1687L121.583 28.9023ZM104.163 32.1687L103.074 31.0799V15.8368C103.437 14.3851 104.344 13.4777 105.796 13.1148L107.429 17.47V28.9023L104.163 32.1687ZM153.154 32.7131L154.243 33.8019V49.045C153.88 50.4967 152.973 51.4041 151.521 51.767L149.888 47.4118V35.9795L153.154 32.7131ZM150.432 51.767H134.1C132.648 51.4041 131.741 50.4967 131.378 49.045L135.733 47.4118H148.799L150.432 51.767ZM131.378 47.9562V33.8019L132.467 32.7131L135.733 35.9795V46.323L131.378 47.9562ZM149.888 28.3579V16.9256L151.521 12.5704C152.973 12.9333 153.88 13.8407 154.243 15.2924V30.5355L153.154 31.6243L149.888 28.3579ZM132.467 32.1687L131.378 31.0799V15.8368C131.741 14.3851 132.648 13.4777 134.1 13.1148L135.733 17.47V28.9023L132.467 32.1687ZM178.192 29.9911L180.37 32.1687L178.192 34.3463H164.038L161.86 32.1687L164.038 29.9911H178.192ZM181.459 32.7131L182.547 33.8019V49.045C182.184 50.4967 181.277 51.4041 179.825 51.767L178.192 47.4118V35.9795L181.459 32.7131ZM178.737 51.767H162.405C160.953 51.4041 160.046 50.4967 159.683 49.045L164.038 47.4118H177.103L178.737 51.767ZM164.038 18.0144V28.3579L160.771 31.6243L159.683 30.5355V16.3812L164.038 18.0144ZM164.092 16.9256L159.737 15.2924C160.1 13.8407 161.007 12.9333 162.459 12.5704H179.825C181.277 12.9333 182.184 13.8407 182.547 15.2924L178.192 16.9256H164.092Z" fill="#FF0000"/>
</g>
<path d="M24.0999 32.7131L26.2775 34.8907V49.045C25.9145 50.4967 25.0072 51.4041 23.5555 51.767L21.9223 47.4118V34.8907L24.0999 32.7131ZM21.9223 29.4467V18.0144H26.2775V29.4467L24.0999 31.6243L21.9223 29.4467ZM17.0772 16.9256L12.722 15.2924C13.0849 13.8407 13.9922 12.9333 15.444 12.5704H32.8102C34.262 12.9333 35.1693 13.8407 35.5322 15.2924L31.177 16.9256H17.0772ZM57.2998 29.9911L59.4774 32.1687L57.2998 34.3463H43.1455L40.9679 32.1687L43.1455 29.9911H57.2998ZM78.5547 30.5355L76.3771 32.7131L74.1995 30.5355V18.0144H78.5547V30.5355ZM86.7206 32.7131L87.8094 33.8019V49.045C87.4465 50.4967 86.5392 51.4041 85.0875 51.767L83.4543 47.4118V35.9795L86.7206 32.7131ZM82.3655 16.9256H69.3544L64.9992 15.2924C65.3621 13.8407 66.2695 12.9333 67.7212 12.5704H83.9987L82.3655 16.9256ZM69.2999 18.0144V28.3579L66.0336 31.6243L64.9448 30.5355V16.3812L69.2999 18.0144ZM83.4543 28.3579V16.9256L85.0875 12.5704C86.5392 12.9333 87.4465 13.8407 87.8094 15.2924V30.5355L86.7206 31.6243L83.4543 28.3579ZM69.2999 35.9795V47.4118L67.6667 51.767C66.215 51.4041 65.3077 50.4967 64.9448 49.045V33.8019L66.0336 32.7131L69.2999 35.9795ZM93.2492 28.3579V16.9256L94.8824 12.5704C96.3341 12.9333 97.2414 13.8407 97.6043 15.2924V30.5355L96.5155 31.6243L93.2492 28.3579ZM96.5155 32.1687L97.6043 33.2575V48.5006C97.2414 49.9523 96.3341 50.8597 94.8824 51.2226L93.2492 46.8674V35.4351L96.5155 32.1687ZM107.429 35.9795V47.4118L105.796 51.767C104.344 51.4041 103.437 50.4967 103.074 49.045V33.8019L104.163 32.7131L107.429 35.9795ZM120.495 28.9023H116.684L108.518 20.7364V17.47H111.784L120.495 26.1803V28.9023ZM124.85 32.7131L125.939 33.8019V49.045C125.576 50.4967 124.668 51.4041 123.217 51.767L121.583 47.4118V35.9795L124.85 32.7131ZM121.583 28.9023V17.47L123.217 13.1148C124.668 13.4777 125.576 14.3851 125.939 15.8368V31.0799L124.85 32.1687L121.583 28.9023ZM104.163 32.1687L103.074 31.0799V15.8368C103.437 14.3851 104.344 13.4777 105.796 13.1148L107.429 17.47V28.9023L104.163 32.1687ZM153.154 32.7131L154.243 33.8019V49.045C153.88 50.4967 152.973 51.4041 151.521 51.767L149.888 47.4118V35.9795L153.154 32.7131ZM150.432 51.767H134.1C132.648 51.4041 131.741 50.4967 131.378 49.045L135.733 47.4118H148.799L150.432 51.767ZM131.378 47.9562V33.8019L132.467 32.7131L135.733 35.9795V46.323L131.378 47.9562ZM149.888 28.3579V16.9256L151.521 12.5704C152.973 12.9333 153.88 13.8407 154.243 15.2924V30.5355L153.154 31.6243L149.888 28.3579ZM132.467 32.1687L131.378 31.0799V15.8368C131.741 14.3851 132.648 13.4777 134.1 13.1148L135.733 17.47V28.9023L132.467 32.1687ZM178.192 29.9911L180.37 32.1687L178.192 34.3463H164.038L161.86 32.1687L164.038 29.9911H178.192ZM181.459 32.7131L182.547 33.8019V49.045C182.184 50.4967 181.277 51.4041 179.825 51.767L178.192 47.4118V35.9795L181.459 32.7131ZM178.737 51.767H162.405C160.953 51.4041 160.046 50.4967 159.683 49.045L164.038 47.4118H177.103L178.737 51.767ZM164.038 18.0144V28.3579L160.771 31.6243L159.683 30.5355V16.3812L164.038 18.0144ZM164.092 16.9256L159.737 15.2924C160.1 13.8407 161.007 12.9333 162.459 12.5704H179.825C181.277 12.9333 182.184 13.8407 182.547 15.2924L178.192 16.9256H164.092Z" fill="#FF0000"/>
<defs>
<filter id="filter0_f_1852_6958" x="0.931693" y="0.780107" width="193.406" height="62.7772" filterUnits="userSpaceOnUse" color-interpolation-filters="sRGB">
<feFlood flood-opacity="0" result="BackgroundImageFix"/>
<feBlend mode="normal" in="SourceGraphic" in2="BackgroundImageFix" result="shape"/>
<feGaussianBlur stdDeviation="5.89515" result="effect1_foregroundBlur_1852_6958"/>
</filter>
<filter id="filter1_f_1852_6958" x="0.931693" y="0.780107" width="193.406" height="62.7772" filterUnits="userSpaceOnUse" color-interpolation-filters="sRGB">
<feFlood flood-opacity="0" result="BackgroundImageFix"/>
<feBlend mode="normal" in="SourceGraphic" in2="BackgroundImageFix" result="shape"/>
<feGaussianBlur stdDeviation="5.89515" result="effect1_foregroundBlur_1852_6958"/>
</filter>
</defs>
</svg>
